<mxfile host="app.diagrams.net" modified="2022-01-11T02:13:48.270Z" agent="5.0 (Windows NT 10.0; Win64; x64) AppleWebKit/537.36 (KHTML, like Gecko) Chrome/95.0.4638.54 Safari/537.36" etag="Kwuy_gjCnxMtmPTz-BCU" version="16.2.2" type="github">
  <diagram id="Qj7MgNATCYRBkC7Vh015" name="第 1 页">
    <mxGraphModel dx="3197" dy="1193" grid="1" gridSize="10" guides="1" tooltips="1" connect="1" arrows="1" fold="1" page="1" pageScale="1" pageWidth="827" pageHeight="1169" math="0" shadow="0">
      <root>
        <mxCell id="0" />
        <mxCell id="1" parent="0" />
        <mxCell id="Wg9T3s5gL22rxu_gKdYz-32" value="&lt;h1&gt;呼入状态迁移&lt;/h1&gt;&lt;p style=&quot;font-size: 20px&quot;&gt;&lt;br&gt;&lt;/p&gt;&lt;p style=&quot;font-size: 20px&quot;&gt;&lt;br&gt;&lt;/p&gt;&lt;p&gt;&lt;font color=&quot;#ff8000&quot;&gt;&lt;br&gt;&lt;/font&gt;&lt;/p&gt;&lt;p&gt;&lt;font color=&quot;#ff8000&quot;&gt;&lt;br&gt;&lt;/font&gt;&lt;/p&gt;&lt;p&gt;&lt;br&gt;&lt;/p&gt;" style="text;html=1;strokeColor=none;fillColor=none;spacing=5;spacingTop=-20;whiteSpace=wrap;overflow=hidden;rounded=0;" vertex="1" parent="1">
          <mxGeometry x="300" y="30" width="250" height="60" as="geometry" />
        </mxCell>
        <mxCell id="Wg9T3s5gL22rxu_gKdYz-33" value="&lt;h1 style=&quot;font-size: 28px&quot;&gt;&lt;font style=&quot;font-size: 28px&quot;&gt;&lt;br&gt;&lt;/font&gt;&lt;/h1&gt;&lt;p style=&quot;font-size: 28px&quot;&gt;&lt;font style=&quot;font-size: 28px&quot;&gt;&lt;b&gt;&lt;i&gt;legend:&lt;/i&gt;&lt;/b&gt;&lt;/font&gt;&lt;/p&gt;&lt;p style=&quot;font-size: 28px&quot;&gt;&lt;font color=&quot;#ff00ff&quot; style=&quot;font-size: 28px&quot;&gt;&lt;b&gt;xxxx Function call by APP&lt;/b&gt;&lt;/font&gt;&lt;/p&gt;&lt;p style=&quot;font-size: 28px&quot;&gt;&lt;font style=&quot;font-size: 28px&quot;&gt;&lt;b style=&quot;color: rgb(255 , 128 , 0)&quot;&gt;xxxx Event triggered&amp;nbsp;by UFO&lt;/b&gt;&lt;font color=&quot;#ff00ff&quot; style=&quot;font-size: 28px&quot;&gt;&lt;b&gt;&lt;br&gt;&lt;/b&gt;&lt;/font&gt;&lt;/font&gt;&lt;/p&gt;&lt;p style=&quot;font-size: 28px&quot;&gt;&lt;b&gt;&lt;font style=&quot;font-size: 28px&quot;&gt;&lt;font color=&quot;#000099&quot; style=&quot;font-size: 28px&quot;&gt;xxxx Event triggered&amp;nbsp;by Internal&lt;/font&gt;&lt;font color=&quot;#ff00ff&quot; style=&quot;font-size: 28px&quot;&gt;&lt;br&gt;&lt;/font&gt;&lt;/font&gt;&lt;/b&gt;&lt;/p&gt;&lt;p style=&quot;font-size: 28px&quot;&gt;&lt;font color=&quot;#336600&quot; style=&quot;font-size: 28px&quot;&gt;&lt;b&gt;xxxx Msg Rcv From External&lt;/b&gt;&lt;/font&gt;&lt;/p&gt;&lt;p style=&quot;font-size: 28px&quot;&gt;&lt;font color=&quot;#336600&quot; style=&quot;font-size: 28px&quot;&gt;&lt;b&gt;&lt;br&gt;&lt;/b&gt;&lt;/font&gt;&lt;/p&gt;&lt;p style=&quot;font-size: 28px&quot;&gt;&lt;font color=&quot;#336600&quot; style=&quot;font-size: 28px&quot;&gt;&lt;b&gt;&lt;br&gt;&lt;/b&gt;&lt;/font&gt;&lt;/p&gt;&lt;p style=&quot;font-size: 28px&quot;&gt;&lt;font color=&quot;#336600&quot; style=&quot;font-size: 28px&quot;&gt;&lt;b&gt;S1 Step 1 、S2 Step 2&lt;/b&gt;&lt;/font&gt;&lt;/p&gt;&lt;p style=&quot;font-size: 28px&quot;&gt;&lt;font style=&quot;font-size: 28px&quot;&gt;&lt;br&gt;&lt;/font&gt;&lt;/p&gt;&lt;p style=&quot;font-size: 28px&quot;&gt;&lt;font color=&quot;#ff8000&quot; style=&quot;font-size: 28px&quot;&gt;&lt;br&gt;&lt;/font&gt;&lt;/p&gt;&lt;p style=&quot;font-size: 28px&quot;&gt;&lt;font color=&quot;#ff8000&quot; style=&quot;font-size: 28px&quot;&gt;&lt;br&gt;&lt;/font&gt;&lt;/p&gt;&lt;p style=&quot;font-size: 28px&quot;&gt;&lt;br&gt;&lt;/p&gt;" style="text;html=1;strokeColor=none;fillColor=none;spacing=5;spacingTop=-20;whiteSpace=wrap;overflow=hidden;rounded=0;" vertex="1" parent="1">
          <mxGeometry x="-500" y="20" width="661" height="560" as="geometry" />
        </mxCell>
        <mxCell id="Wg9T3s5gL22rxu_gKdYz-34" value="&lt;font color=&quot;#66b2ff&quot; size=&quot;1&quot;&gt;&lt;b style=&quot;font-size: 28px&quot;&gt;Ofen used channel status&lt;/b&gt;&lt;/font&gt;" style="text;html=1;strokeColor=none;fillColor=none;align=center;verticalAlign=middle;whiteSpace=wrap;rounded=0;fontColor=#FF8000;strokeWidth=5;" vertex="1" parent="1">
          <mxGeometry x="-450" y="420" width="400" height="30" as="geometry" />
        </mxCell>
        <mxCell id="Wg9T3s5gL22rxu_gKdYz-35" value="" style="ellipse;whiteSpace=wrap;html=1;fillColor=#dae8fc;strokeColor=#6c8ebf;strokeWidth=1;" vertex="1" parent="1">
          <mxGeometry x="-490" y="420" width="50" height="30" as="geometry" />
        </mxCell>
        <mxCell id="Wg9T3s5gL22rxu_gKdYz-38" style="edgeStyle=orthogonalEdgeStyle;curved=1;rounded=0;orthogonalLoop=1;jettySize=auto;html=1;entryX=0;entryY=0.5;entryDx=0;entryDy=0;fontFamily=Helvetica;fontSize=12;fontColor=default;" edge="1" parent="1" target="Wg9T3s5gL22rxu_gKdYz-41">
          <mxGeometry relative="1" as="geometry">
            <Array as="points">
              <mxPoint x="-540" y="1900" />
              <mxPoint x="-540" y="2940" />
            </Array>
            <mxPoint x="-200" y="1900" as="sourcePoint" />
          </mxGeometry>
        </mxCell>
        <mxCell id="Wg9T3s5gL22rxu_gKdYz-72" value="" style="edgeStyle=orthogonalEdgeStyle;rounded=0;orthogonalLoop=1;jettySize=auto;html=1;endSize=24;" edge="1" parent="1" source="Wg9T3s5gL22rxu_gKdYz-62" target="Wg9T3s5gL22rxu_gKdYz-71">
          <mxGeometry relative="1" as="geometry" />
        </mxCell>
        <mxCell id="Wg9T3s5gL22rxu_gKdYz-62" value="&lt;span style=&quot;font-size: 28px&quot;&gt;DOWN&lt;/span&gt;" style="ellipse;whiteSpace=wrap;html=1;fillColor=#60a917;strokeColor=#2D7600;fontColor=#ffffff;" vertex="1" parent="1">
          <mxGeometry x="250" y="290" width="260" height="80" as="geometry" />
        </mxCell>
        <mxCell id="Wg9T3s5gL22rxu_gKdYz-75" value="" style="edgeStyle=orthogonalEdgeStyle;rounded=0;orthogonalLoop=1;jettySize=auto;html=1;endSize=24;" edge="1" parent="1" source="Wg9T3s5gL22rxu_gKdYz-71" target="Wg9T3s5gL22rxu_gKdYz-74">
          <mxGeometry relative="1" as="geometry" />
        </mxCell>
        <mxCell id="Wg9T3s5gL22rxu_gKdYz-97" style="rounded=0;orthogonalLoop=1;jettySize=auto;html=1;fontColor=#FF8000;endSize=24;entryX=0;entryY=0.5;entryDx=0;entryDy=0;" edge="1" parent="1" source="Wg9T3s5gL22rxu_gKdYz-71" target="Wg9T3s5gL22rxu_gKdYz-95">
          <mxGeometry relative="1" as="geometry" />
        </mxCell>
        <mxCell id="Wg9T3s5gL22rxu_gKdYz-71" value="&lt;span style=&quot;font-size: 28px&quot;&gt;RINGING&lt;/span&gt;" style="ellipse;whiteSpace=wrap;html=1;fillColor=#60a917;strokeColor=#2D7600;fontColor=#ffffff;" vertex="1" parent="1">
          <mxGeometry x="250" y="770" width="260" height="80" as="geometry" />
        </mxCell>
        <mxCell id="Wg9T3s5gL22rxu_gKdYz-84" value="" style="edgeStyle=orthogonalEdgeStyle;rounded=0;orthogonalLoop=1;jettySize=auto;html=1;fontColor=#FF8000;endSize=24;" edge="1" parent="1" source="Wg9T3s5gL22rxu_gKdYz-74" target="Wg9T3s5gL22rxu_gKdYz-83">
          <mxGeometry relative="1" as="geometry" />
        </mxCell>
        <mxCell id="Wg9T3s5gL22rxu_gKdYz-98" style="rounded=0;orthogonalLoop=1;jettySize=auto;html=1;exitX=1;exitY=0;exitDx=0;exitDy=0;fontColor=#FF8000;endSize=24;" edge="1" parent="1" source="Wg9T3s5gL22rxu_gKdYz-74" target="Wg9T3s5gL22rxu_gKdYz-95">
          <mxGeometry relative="1" as="geometry" />
        </mxCell>
        <mxCell id="Wg9T3s5gL22rxu_gKdYz-74" value="&lt;span style=&quot;font-size: 28px&quot;&gt;ACTIVE&lt;/span&gt;" style="ellipse;whiteSpace=wrap;html=1;fillColor=#60a917;strokeColor=#2D7600;fontColor=#ffffff;" vertex="1" parent="1">
          <mxGeometry x="250" y="1420" width="260" height="80" as="geometry" />
        </mxCell>
        <mxCell id="Wg9T3s5gL22rxu_gKdYz-78" value="&lt;div style=&quot;font-family: &amp;#34;consolas&amp;#34; , &amp;#34;courier new&amp;#34; , monospace ; line-height: 19px ; font-size: 28px&quot;&gt;&lt;span&gt;CHANNEL_CALLSTATE（RINGING）&lt;/span&gt;&lt;br&gt;&lt;/div&gt;&lt;div style=&quot;font-family: &amp;#34;consolas&amp;#34; , &amp;#34;courier new&amp;#34; , monospace ; line-height: 19px ; font-size: 28px&quot;&gt;&lt;span&gt;&lt;br&gt;&lt;/span&gt;&lt;/div&gt;&lt;div style=&quot;font-family: &amp;#34;consolas&amp;#34; , &amp;#34;courier new&amp;#34; , monospace ; line-height: 19px ; font-size: 28px&quot;&gt;&lt;span&gt;&lt;font color=&quot;#ff8000&quot;&gt;OnRinging&lt;/font&gt;&lt;/span&gt;&lt;/div&gt;&lt;div style=&quot;font-family: &amp;#34;consolas&amp;#34; , &amp;#34;courier new&amp;#34; , monospace ; line-height: 19px ; font-size: 28px&quot;&gt;&lt;div style=&quot;font-family: &amp;#34;consolas&amp;#34; , &amp;#34;courier new&amp;#34; , monospace ; line-height: 19px&quot;&gt;&lt;br&gt;&lt;/div&gt;&lt;/div&gt;" style="edgeLabel;html=1;align=center;verticalAlign=middle;resizable=0;points=[];fontSize=15;fontColor=default;labelBackgroundColor=default;fontStyle=1;labelBorderColor=none;" vertex="1" connectable="0" parent="1">
          <mxGeometry x="390" y="540.0015384615385" as="geometry" />
        </mxCell>
        <mxCell id="Wg9T3s5gL22rxu_gKdYz-79" value="&lt;div style=&quot;line-height: 19px&quot;&gt;&lt;font face=&quot;consolas, courier new, monospace&quot;&gt;&lt;span style=&quot;font-size: 28px&quot;&gt;CHANNEL_CALLSTATE（ACTIVE）&lt;/span&gt;&lt;/font&gt;&lt;br&gt;&lt;/div&gt;&lt;div style=&quot;font-family: &amp;quot;consolas&amp;quot; , &amp;quot;courier new&amp;quot; , monospace ; line-height: 19px ; font-size: 28px&quot;&gt;&lt;span&gt;&lt;br&gt;&lt;/span&gt;&lt;/div&gt;&lt;div style=&quot;font-family: &amp;quot;consolas&amp;quot; , &amp;quot;courier new&amp;quot; , monospace ; line-height: 19px ; font-size: 28px&quot;&gt;&lt;span style=&quot;color: rgb(255 , 128 , 0)&quot;&gt;OnTalking&lt;/span&gt;&lt;span&gt;&lt;br&gt;&lt;/span&gt;&lt;/div&gt;&lt;div style=&quot;font-family: &amp;quot;consolas&amp;quot; , &amp;quot;courier new&amp;quot; , monospace ; line-height: 19px ; font-size: 28px&quot;&gt;&lt;span&gt;&lt;br&gt;&lt;/span&gt;&lt;/div&gt;&lt;div style=&quot;font-family: &amp;quot;consolas&amp;quot; , &amp;quot;courier new&amp;quot; , monospace ; line-height: 19px ; font-size: 28px&quot;&gt;&lt;div style=&quot;font-family: &amp;quot;consolas&amp;quot; , &amp;quot;courier new&amp;quot; , monospace ; line-height: 19px&quot;&gt;&lt;br&gt;&lt;/div&gt;&lt;/div&gt;" style="edgeLabel;html=1;align=center;verticalAlign=middle;resizable=0;points=[];fontSize=15;fontColor=#000099;labelBackgroundColor=default;fontStyle=1;" vertex="1" connectable="0" parent="1">
          <mxGeometry x="380" y="1169.0015384615385" as="geometry" />
        </mxCell>
        <mxCell id="Wg9T3s5gL22rxu_gKdYz-88" style="edgeStyle=orthogonalEdgeStyle;rounded=0;orthogonalLoop=1;jettySize=auto;html=1;entryX=0.242;entryY=0.996;entryDx=0;entryDy=0;entryPerimeter=0;fontColor=#FF8000;curved=1;endSize=24;fillColor=#d80073;strokeColor=#0000FF;startSize=6;strokeWidth=3;" edge="1" parent="1" source="Wg9T3s5gL22rxu_gKdYz-83" target="Wg9T3s5gL22rxu_gKdYz-87">
          <mxGeometry relative="1" as="geometry" />
        </mxCell>
        <mxCell id="Wg9T3s5gL22rxu_gKdYz-106" style="edgeStyle=orthogonalEdgeStyle;curved=1;rounded=0;orthogonalLoop=1;jettySize=auto;html=1;entryX=0.5;entryY=1;entryDx=0;entryDy=0;fontColor=#FF8000;endSize=24;targetPerimeterSpacing=9;strokeColor=#990000;strokeWidth=3;" edge="1" parent="1" source="Wg9T3s5gL22rxu_gKdYz-83" target="Wg9T3s5gL22rxu_gKdYz-87">
          <mxGeometry relative="1" as="geometry">
            <Array as="points">
              <mxPoint x="380" y="2180" />
              <mxPoint x="1230" y="2180" />
            </Array>
          </mxGeometry>
        </mxCell>
        <mxCell id="Wg9T3s5gL22rxu_gKdYz-83" value="&lt;span style=&quot;font-size: 28px&quot;&gt;HELD&lt;/span&gt;" style="ellipse;whiteSpace=wrap;html=1;fillColor=#60a917;strokeColor=#2D7600;fontColor=#ffffff;" vertex="1" parent="1">
          <mxGeometry x="250" y="1890" width="260" height="80" as="geometry" />
        </mxCell>
        <mxCell id="Wg9T3s5gL22rxu_gKdYz-85" value="&lt;div style=&quot;line-height: 19px&quot;&gt;&lt;font face=&quot;consolas, courier new, monospace&quot;&gt;&lt;span style=&quot;font-size: 28px&quot;&gt;CHANNEL_CALLSTATE（HELD）&lt;/span&gt;&lt;/font&gt;&lt;br&gt;&lt;/div&gt;&lt;div style=&quot;font-family: &amp;#34;consolas&amp;#34; , &amp;#34;courier new&amp;#34; , monospace ; line-height: 19px ; font-size: 28px&quot;&gt;&lt;span&gt;&lt;br&gt;&lt;/span&gt;&lt;/div&gt;&lt;div style=&quot;font-family: &amp;#34;consolas&amp;#34; , &amp;#34;courier new&amp;#34; , monospace ; line-height: 19px ; font-size: 28px&quot;&gt;&lt;span style=&quot;color: rgb(255 , 128 , 0)&quot;&gt;OnHolding&lt;/span&gt;&lt;span&gt;&lt;br&gt;&lt;/span&gt;&lt;/div&gt;&lt;div style=&quot;font-family: &amp;#34;consolas&amp;#34; , &amp;#34;courier new&amp;#34; , monospace ; line-height: 19px ; font-size: 28px&quot;&gt;&lt;span&gt;&lt;br&gt;&lt;/span&gt;&lt;/div&gt;&lt;div style=&quot;font-family: &amp;#34;consolas&amp;#34; , &amp;#34;courier new&amp;#34; , monospace ; line-height: 19px ; font-size: 28px&quot;&gt;&lt;div style=&quot;font-family: &amp;#34;consolas&amp;#34; , &amp;#34;courier new&amp;#34; , monospace ; line-height: 19px&quot;&gt;&lt;br&gt;&lt;/div&gt;&lt;/div&gt;" style="edgeLabel;html=1;align=center;verticalAlign=middle;resizable=0;points=[];fontSize=15;fontColor=#000099;labelBackgroundColor=default;fontStyle=1;" vertex="1" connectable="0" parent="1">
          <mxGeometry x="380" y="1790.0015384615385" as="geometry" />
        </mxCell>
        <mxCell id="Wg9T3s5gL22rxu_gKdYz-86" value="&lt;div style=&quot;font-family: &amp;quot;consolas&amp;quot; , &amp;quot;courier new&amp;quot; , monospace ; line-height: 19px ; font-size: 28px&quot;&gt;&lt;div style=&quot;font-family: &amp;quot;consolas&amp;quot; , &amp;quot;courier new&amp;quot; , monospace ; line-height: 19px ; font-size: 28px&quot;&gt;&lt;h1 class=&quot;topictitle1&quot; style=&quot;font-size: 28px&quot;&gt;&lt;font color=&quot;#ff00ff&quot; style=&quot;font-size: 28px&quot;&gt;Hold&lt;/font&gt;&lt;/h1&gt;&lt;div style=&quot;font-size: 28px&quot;&gt;&lt;font style=&quot;font-size: 28px&quot; color=&quot;#ff8000&quot;&gt;OnHoldResult&lt;/font&gt;&lt;/div&gt;&lt;/div&gt;&lt;/div&gt;" style="edgeLabel;html=1;align=center;verticalAlign=middle;resizable=0;points=[];fontSize=28;fontColor=#CC00CC;labelBackgroundColor=default;fontStyle=1;" vertex="1" connectable="0" parent="1">
          <mxGeometry x="390" y="1580" as="geometry">
            <mxPoint x="-12" y="2" as="offset" />
          </mxGeometry>
        </mxCell>
        <mxCell id="Wg9T3s5gL22rxu_gKdYz-91" style="edgeStyle=orthogonalEdgeStyle;rounded=0;orthogonalLoop=1;jettySize=auto;html=1;entryX=1;entryY=0.5;entryDx=0;entryDy=0;fontColor=#FF8000;exitX=0;exitY=0;exitDx=0;exitDy=0;curved=1;endSize=24;fillColor=#d80073;strokeColor=#0000FF;startSize=6;strokeWidth=3;startArrow=none;" edge="1" parent="1" source="Wg9T3s5gL22rxu_gKdYz-124" target="Wg9T3s5gL22rxu_gKdYz-74">
          <mxGeometry relative="1" as="geometry">
            <Array as="points" />
          </mxGeometry>
        </mxCell>
        <mxCell id="Wg9T3s5gL22rxu_gKdYz-103" style="rounded=0;orthogonalLoop=1;jettySize=auto;html=1;entryX=0.5;entryY=1;entryDx=0;entryDy=0;fontColor=#FF8000;strokeColor=#990000;targetPerimeterSpacing=9;endSize=24;strokeWidth=3;exitX=0.5;exitY=0;exitDx=0;exitDy=0;startArrow=none;" edge="1" parent="1" source="Wg9T3s5gL22rxu_gKdYz-121" target="Wg9T3s5gL22rxu_gKdYz-95">
          <mxGeometry relative="1" as="geometry" />
        </mxCell>
        <mxCell id="Wg9T3s5gL22rxu_gKdYz-87" value="&lt;span style=&quot;font-size: 28px&quot;&gt;UNHELD&lt;/span&gt;" style="ellipse;whiteSpace=wrap;html=1;fillColor=#60a917;strokeColor=#2D7600;fontColor=#ffffff;" vertex="1" parent="1">
          <mxGeometry x="1100" y="1650" width="260" height="80" as="geometry" />
        </mxCell>
        <mxCell id="Wg9T3s5gL22rxu_gKdYz-89" value="&lt;div style=&quot;font-family: &amp;quot;consolas&amp;quot; , &amp;quot;courier new&amp;quot; , monospace ; font-size: 28px ; line-height: 19px&quot;&gt;&lt;div style=&quot;font-family: &amp;quot;consolas&amp;quot; , &amp;quot;courier new&amp;quot; , monospace ; line-height: 19px ; font-size: 28px&quot;&gt;&lt;h1 class=&quot;topictitle1&quot; style=&quot;font-size: 28px&quot;&gt;&lt;font color=&quot;#ff00ff&quot; style=&quot;font-size: 28px&quot;&gt;UnHold&lt;/font&gt;&lt;/h1&gt;&lt;div style=&quot;font-size: 28px&quot;&gt;&lt;font style=&quot;font-size: 28px&quot; color=&quot;#ff8000&quot;&gt;OnUnHoldResult&lt;/font&gt;&lt;/div&gt;&lt;/div&gt;&lt;/div&gt;" style="edgeLabel;html=1;align=center;verticalAlign=middle;resizable=0;points=[];fontSize=28;fontColor=#CC00CC;labelBackgroundColor=default;fontStyle=1;" vertex="1" connectable="0" parent="1">
          <mxGeometry x="670" y="1910" as="geometry">
            <mxPoint x="-12" y="2" as="offset" />
          </mxGeometry>
        </mxCell>
        <mxCell id="Wg9T3s5gL22rxu_gKdYz-90" value="&lt;div style=&quot;line-height: 19px&quot;&gt;&lt;font face=&quot;consolas, courier new, monospace&quot;&gt;&lt;span style=&quot;font-size: 28px&quot;&gt;CHANNEL_CALLSTATE（UNHELD）&lt;/span&gt;&lt;/font&gt;&lt;br&gt;&lt;/div&gt;&lt;div style=&quot;font-family: &amp;#34;consolas&amp;#34; , &amp;#34;courier new&amp;#34; , monospace ; line-height: 19px ; font-size: 28px&quot;&gt;&lt;span&gt;&lt;br&gt;&lt;/span&gt;&lt;/div&gt;&lt;div style=&quot;font-family: &amp;#34;consolas&amp;#34; , &amp;#34;courier new&amp;#34; , monospace ; line-height: 19px ; font-size: 28px&quot;&gt;&lt;span style=&quot;color: rgb(255 , 128 , 0)&quot;&gt;OnUnHolding&lt;/span&gt;&lt;span&gt;&lt;br&gt;&lt;/span&gt;&lt;/div&gt;&lt;div style=&quot;font-family: &amp;#34;consolas&amp;#34; , &amp;#34;courier new&amp;#34; , monospace ; line-height: 19px ; font-size: 28px&quot;&gt;&lt;span&gt;&lt;br&gt;&lt;/span&gt;&lt;/div&gt;&lt;div style=&quot;font-family: &amp;#34;consolas&amp;#34; , &amp;#34;courier new&amp;#34; , monospace ; line-height: 19px ; font-size: 28px&quot;&gt;&lt;div style=&quot;font-family: &amp;#34;consolas&amp;#34; , &amp;#34;courier new&amp;#34; , monospace ; line-height: 19px&quot;&gt;&lt;br&gt;&lt;/div&gt;&lt;/div&gt;" style="edgeLabel;html=1;align=center;verticalAlign=middle;resizable=0;points=[];fontSize=15;fontColor=#000099;labelBackgroundColor=default;fontStyle=1;" vertex="1" connectable="0" parent="1">
          <mxGeometry x="970" y="1900.0015384615385" as="geometry" />
        </mxCell>
        <mxCell id="Wg9T3s5gL22rxu_gKdYz-115" style="edgeStyle=none;rounded=0;orthogonalLoop=1;jettySize=auto;html=1;entryX=0.5;entryY=1;entryDx=0;entryDy=0;fontColor=#FF8000;endSize=24;targetPerimeterSpacing=9;strokeColor=#990000;strokeWidth=1;" edge="1" parent="1" source="Wg9T3s5gL22rxu_gKdYz-95" target="Wg9T3s5gL22rxu_gKdYz-113">
          <mxGeometry relative="1" as="geometry" />
        </mxCell>
        <mxCell id="Wg9T3s5gL22rxu_gKdYz-95" value="&lt;span style=&quot;font-size: 28px&quot;&gt;HANGUP&lt;/span&gt;" style="ellipse;whiteSpace=wrap;html=1;fillColor=#60a917;strokeColor=#2D7600;fontColor=#ffffff;" vertex="1" parent="1">
          <mxGeometry x="1107" y="670" width="260" height="80" as="geometry" />
        </mxCell>
        <mxCell id="Wg9T3s5gL22rxu_gKdYz-99" value="&lt;div style=&quot;font-family: &amp;#34;consolas&amp;#34; , &amp;#34;courier new&amp;#34; , monospace ; line-height: 19px ; font-size: 28px&quot;&gt;&lt;div style=&quot;font-family: &amp;#34;consolas&amp;#34; , &amp;#34;courier new&amp;#34; , monospace ; line-height: 19px&quot;&gt;&lt;h1 class=&quot;topictitle1&quot;&gt;&lt;font color=&quot;#ff00ff&quot; style=&quot;font-size: 28px&quot;&gt;HangUp&lt;/font&gt;&lt;/h1&gt;&lt;div&gt;&lt;font style=&quot;font-size: 28px&quot; color=&quot;#ff8000&quot;&gt;OnHangUpResult&lt;/font&gt;&lt;/div&gt;&lt;div&gt;&lt;font style=&quot;font-size: 28px&quot; color=&quot;#ff8000&quot;&gt;&lt;br&gt;&lt;/font&gt;&lt;/div&gt;&lt;div&gt;&lt;font style=&quot;font-size: 28px&quot; color=&quot;#ff8000&quot;&gt;&lt;br&gt;&lt;/font&gt;&lt;/div&gt;&lt;div&gt;&lt;div style=&quot;color: rgb(0 , 0 , 153) ; font-family: &amp;#34;helvetica&amp;#34; ; font-size: 15px ; line-height: 19px&quot;&gt;&lt;font face=&quot;consolas, courier new, monospace&quot;&gt;&lt;span style=&quot;font-size: 28px&quot;&gt;CHANNEL_CALLSTATE（HANGUP）&lt;/span&gt;&lt;/font&gt;&lt;br&gt;&lt;/div&gt;&lt;div style=&quot;color: rgb(0 , 0 , 153) ; line-height: 19px&quot;&gt;&lt;br&gt;&lt;/div&gt;&lt;div style=&quot;color: rgb(0 , 0 , 153) ; line-height: 19px&quot;&gt;&lt;span style=&quot;color: rgb(255 , 128 , 0)&quot;&gt;OnHangup&lt;/span&gt;&lt;br&gt;&lt;/div&gt;&lt;/div&gt;&lt;div&gt;&lt;span style=&quot;color: rgb(255 , 128 , 0)&quot;&gt;&lt;br&gt;&lt;/span&gt;&lt;/div&gt;&lt;div&gt;&lt;font style=&quot;font-size: 28px&quot; color=&quot;#ff8000&quot;&gt;&lt;br&gt;&lt;/font&gt;&lt;/div&gt;&lt;/div&gt;&lt;/div&gt;" style="edgeLabel;html=1;align=center;verticalAlign=middle;resizable=0;points=[];fontSize=15;fontColor=#CC00CC;labelBackgroundColor=default;fontStyle=1;" vertex="1" connectable="0" parent="1">
          <mxGeometry x="520" y="920" as="geometry">
            <mxPoint x="320" y="206" as="offset" />
          </mxGeometry>
        </mxCell>
        <mxCell id="Wg9T3s5gL22rxu_gKdYz-101" value="&lt;div style=&quot;font-family: &amp;quot;consolas&amp;quot; , &amp;quot;courier new&amp;quot; , monospace ; line-height: 19px ; font-size: 28px&quot;&gt;&lt;div style=&quot;font-family: &amp;quot;consolas&amp;quot; , &amp;quot;courier new&amp;quot; , monospace ; line-height: 19px&quot;&gt;&lt;h1 class=&quot;topictitle1&quot;&gt;&lt;font color=&quot;#ff00ff&quot; style=&quot;font-size: 28px&quot;&gt;HangUp&lt;/font&gt;&lt;/h1&gt;&lt;div&gt;&lt;font style=&quot;font-size: 28px&quot; color=&quot;#ff8000&quot;&gt;OnHangUpResult&lt;/font&gt;&lt;/div&gt;&lt;/div&gt;&lt;/div&gt;" style="edgeLabel;html=1;align=center;verticalAlign=middle;resizable=0;points=[];fontSize=15;fontColor=#CC00CC;labelBackgroundColor=default;fontStyle=1;" vertex="1" connectable="0" parent="1">
          <mxGeometry x="400" y="1940" as="geometry">
            <mxPoint x="320" y="206" as="offset" />
          </mxGeometry>
        </mxCell>
        <mxCell id="Wg9T3s5gL22rxu_gKdYz-108" value="&lt;div style=&quot;line-height: 19px&quot;&gt;&lt;br&gt;&lt;/div&gt;&lt;div style=&quot;font-family: &amp;#34;consolas&amp;#34; , &amp;#34;courier new&amp;#34; , monospace ; line-height: 19px ; font-size: 28px&quot;&gt;&lt;div style=&quot;font-family: &amp;#34;consolas&amp;#34; , &amp;#34;courier new&amp;#34; , monospace ; line-height: 19px&quot;&gt;&lt;br&gt;&lt;/div&gt;&lt;/div&gt;" style="edgeLabel;html=1;align=center;verticalAlign=middle;resizable=0;points=[];fontSize=15;fontColor=#000099;labelBackgroundColor=default;fontStyle=1;" vertex="1" connectable="0" parent="1">
          <mxGeometry x="890" y="1120.0015384615385" as="geometry" />
        </mxCell>
        <mxCell id="Wg9T3s5gL22rxu_gKdYz-109" value="&lt;div style=&quot;line-height: 19px&quot;&gt;&lt;font face=&quot;consolas, courier new, monospace&quot;&gt;&lt;span style=&quot;font-size: 28px&quot;&gt;CHANNEL_CALLSTATE（UNHELD）&lt;/span&gt;&lt;/font&gt;&lt;br&gt;&lt;/div&gt;&lt;div style=&quot;font-family: &amp;#34;consolas&amp;#34; , &amp;#34;courier new&amp;#34; , monospace ; line-height: 19px ; font-size: 28px&quot;&gt;&lt;span&gt;&lt;br&gt;&lt;/span&gt;&lt;/div&gt;&lt;div style=&quot;font-family: &amp;#34;consolas&amp;#34; , &amp;#34;courier new&amp;#34; , monospace ; line-height: 19px ; font-size: 28px&quot;&gt;&lt;span style=&quot;color: rgb(255 , 128 , 0)&quot;&gt;OnUnHolding&lt;/span&gt;&lt;span&gt;&lt;br&gt;&lt;/span&gt;&lt;/div&gt;&lt;div style=&quot;font-family: &amp;#34;consolas&amp;#34; , &amp;#34;courier new&amp;#34; , monospace ; line-height: 19px ; font-size: 28px&quot;&gt;&lt;span&gt;&lt;br&gt;&lt;/span&gt;&lt;/div&gt;&lt;div style=&quot;font-family: &amp;#34;consolas&amp;#34; , &amp;#34;courier new&amp;#34; , monospace ; line-height: 19px ; font-size: 28px&quot;&gt;&lt;div style=&quot;font-family: &amp;#34;consolas&amp;#34; , &amp;#34;courier new&amp;#34; , monospace ; line-height: 19px&quot;&gt;&lt;br&gt;&lt;/div&gt;&lt;/div&gt;" style="edgeLabel;html=1;align=center;verticalAlign=middle;resizable=0;points=[];fontSize=15;fontColor=#000099;labelBackgroundColor=default;fontStyle=1;" vertex="1" connectable="0" parent="1">
          <mxGeometry x="1020" y="2100.0015384615385" as="geometry">
            <mxPoint x="38" y="28" as="offset" />
          </mxGeometry>
        </mxCell>
        <mxCell id="Wg9T3s5gL22rxu_gKdYz-113" value="&lt;span style=&quot;font-size: 28px&quot;&gt;DESTROY&lt;/span&gt;" style="ellipse;whiteSpace=wrap;html=1;fillColor=#0050ef;strokeColor=#001DBC;fontColor=#ffffff;" vertex="1" parent="1">
          <mxGeometry x="1100" y="290" width="260" height="80" as="geometry" />
        </mxCell>
        <mxCell id="Wg9T3s5gL22rxu_gKdYz-114" value="&lt;div style=&quot;font-family: &amp;quot;consolas&amp;quot; , &amp;quot;courier new&amp;quot; , monospace ; line-height: 19px&quot;&gt;&lt;font style=&quot;font-size: 28px&quot;&gt;CHANNEL_HANGUP_COMPLETE&lt;/font&gt;&lt;/div&gt;&lt;div style=&quot;font-family: &amp;quot;consolas&amp;quot; , &amp;quot;courier new&amp;quot; , monospace ; line-height: 19px&quot;&gt;&lt;font style=&quot;font-size: 28px&quot;&gt;&lt;br&gt;&lt;/font&gt;&lt;/div&gt;&lt;div style=&quot;font-family: &amp;quot;consolas&amp;quot; , &amp;quot;courier new&amp;quot; , monospace ; line-height: 19px&quot;&gt;&lt;font style=&quot;font-size: 28px&quot; color=&quot;#ff8000&quot;&gt;OnCdrEnent&lt;/font&gt;&lt;/div&gt;" style="edgeLabel;html=1;align=center;verticalAlign=middle;resizable=0;points=[];fontSize=28;fontColor=#000099;labelBackgroundColor=default;fontStyle=1" vertex="1" connectable="0" parent="1">
          <mxGeometry x="1229.9985340497713" y="499.99664966276237" as="geometry" />
        </mxCell>
        <mxCell id="Wg9T3s5gL22rxu_gKdYz-116" value="&lt;div style=&quot;font-family: &amp;#34;consolas&amp;#34; , &amp;#34;courier new&amp;#34; , monospace ; line-height: 19px ; font-size: 28px&quot;&gt;&lt;div style=&quot;font-family: &amp;#34;consolas&amp;#34; , &amp;#34;courier new&amp;#34; , monospace ; line-height: 19px&quot;&gt;&lt;h1 class=&quot;topictitle1&quot;&gt;&lt;font color=&quot;#ff00ff&quot; style=&quot;font-size: 28px&quot;&gt;HangUp&lt;/font&gt;&lt;/h1&gt;&lt;div&gt;&lt;font style=&quot;font-size: 28px&quot; color=&quot;#ff8000&quot;&gt;OnHangUpResult&lt;/font&gt;&lt;/div&gt;&lt;div&gt;&lt;font style=&quot;font-size: 28px&quot; color=&quot;#ff8000&quot;&gt;&lt;br&gt;&lt;/font&gt;&lt;/div&gt;&lt;div&gt;&lt;font style=&quot;font-size: 28px&quot; color=&quot;#ff8000&quot;&gt;&lt;br&gt;&lt;/font&gt;&lt;/div&gt;&lt;div&gt;&lt;div style=&quot;color: rgb(0 , 0 , 153) ; font-family: &amp;#34;helvetica&amp;#34; ; font-size: 15px ; line-height: 19px&quot;&gt;&lt;font face=&quot;consolas, courier new, monospace&quot;&gt;&lt;span style=&quot;font-size: 28px&quot;&gt;CHANNEL_CALLSTATE（HANGUP）&lt;/span&gt;&lt;/font&gt;&lt;br&gt;&lt;/div&gt;&lt;div style=&quot;color: rgb(0 , 0 , 153) ; line-height: 19px&quot;&gt;&lt;br&gt;&lt;/div&gt;&lt;div style=&quot;color: rgb(0 , 0 , 153) ; line-height: 19px&quot;&gt;&lt;span style=&quot;color: rgb(255 , 128 , 0)&quot;&gt;OnHangup&lt;/span&gt;&lt;br&gt;&lt;/div&gt;&lt;/div&gt;&lt;div&gt;&lt;span style=&quot;color: rgb(255 , 128 , 0)&quot;&gt;&lt;br&gt;&lt;/span&gt;&lt;/div&gt;&lt;div&gt;&lt;font style=&quot;font-size: 28px&quot; color=&quot;#ff8000&quot;&gt;&lt;br&gt;&lt;/font&gt;&lt;/div&gt;&lt;/div&gt;&lt;/div&gt;" style="edgeLabel;html=1;align=center;verticalAlign=middle;resizable=0;points=[];fontSize=15;fontColor=#CC00CC;labelBackgroundColor=default;fontStyle=1;" vertex="1" connectable="0" parent="1">
          <mxGeometry x="470" y="520" as="geometry">
            <mxPoint x="320" y="206" as="offset" />
          </mxGeometry>
        </mxCell>
        <mxCell id="Wg9T3s5gL22rxu_gKdYz-118" value="&lt;font style=&quot;font-size: 32px&quot;&gt;S1&lt;/font&gt;" style="ellipse;whiteSpace=wrap;html=1;aspect=fixed;strokeWidth=1;fontFamily=Tahoma;spacingBottom=4;spacingRight=2;strokeColor=#d3d3d3;labelBackgroundColor=default;labelBorderColor=none;fontColor=#FF8000;perimeterSpacing=1;" vertex="1" parent="1">
          <mxGeometry x="1190" y="1930" width="20" height="20" as="geometry" />
        </mxCell>
        <mxCell id="Wg9T3s5gL22rxu_gKdYz-121" value="&lt;font style=&quot;font-size: 32px&quot;&gt;S2&lt;/font&gt;" style="ellipse;whiteSpace=wrap;html=1;aspect=fixed;strokeWidth=1;fontFamily=Tahoma;spacingBottom=4;spacingRight=2;strokeColor=#d3d3d3;labelBackgroundColor=default;labelBorderColor=none;fontColor=#FF8000;perimeterSpacing=1;" vertex="1" parent="1">
          <mxGeometry x="1221" y="920" width="20" height="20" as="geometry" />
        </mxCell>
        <mxCell id="Wg9T3s5gL22rxu_gKdYz-122" value="" style="rounded=0;orthogonalLoop=1;jettySize=auto;html=1;entryX=0.5;entryY=1;entryDx=0;entryDy=0;fontColor=#FF8000;strokeColor=#990000;endSize=24;strokeWidth=3;exitX=0.5;exitY=0;exitDx=0;exitDy=0;endArrow=none;" edge="1" parent="1" source="Wg9T3s5gL22rxu_gKdYz-87" target="Wg9T3s5gL22rxu_gKdYz-121">
          <mxGeometry relative="1" as="geometry">
            <mxPoint x="1230" y="1650" as="sourcePoint" />
            <mxPoint x="1237" y="750.0000000000002" as="targetPoint" />
          </mxGeometry>
        </mxCell>
        <mxCell id="Wg9T3s5gL22rxu_gKdYz-123" value="&lt;font style=&quot;font-size: 32px&quot; color=&quot;#0000cc&quot;&gt;S1&lt;/font&gt;" style="ellipse;whiteSpace=wrap;html=1;aspect=fixed;strokeWidth=1;fontFamily=Tahoma;spacingBottom=4;spacingRight=2;strokeColor=#d3d3d3;labelBackgroundColor=default;labelBorderColor=none;fontColor=#FF8000;perimeterSpacing=1;" vertex="1" parent="1">
          <mxGeometry x="1120" y="1800" width="20" height="20" as="geometry" />
        </mxCell>
        <mxCell id="Wg9T3s5gL22rxu_gKdYz-124" value="&lt;font style=&quot;font-size: 32px&quot; color=&quot;#0000cc&quot;&gt;S2&lt;/font&gt;" style="ellipse;whiteSpace=wrap;html=1;aspect=fixed;strokeWidth=1;fontFamily=Tahoma;spacingBottom=4;spacingRight=2;strokeColor=#d3d3d3;labelBackgroundColor=default;labelBorderColor=none;fontColor=#FF8000;perimeterSpacing=1;" vertex="1" parent="1">
          <mxGeometry x="610" y="1450" width="20" height="20" as="geometry" />
        </mxCell>
        <mxCell id="Wg9T3s5gL22rxu_gKdYz-126" value="" style="edgeStyle=orthogonalEdgeStyle;rounded=0;orthogonalLoop=1;jettySize=auto;html=1;entryX=1;entryY=0.5;entryDx=0;entryDy=0;fontColor=#FF8000;exitX=0;exitY=0;exitDx=0;exitDy=0;curved=1;endSize=24;fillColor=#d80073;strokeColor=#0000FF;startSize=6;strokeWidth=3;endArrow=none;" edge="1" parent="1" source="Wg9T3s5gL22rxu_gKdYz-87" target="Wg9T3s5gL22rxu_gKdYz-124">
          <mxGeometry relative="1" as="geometry">
            <mxPoint x="1138.0761184457488" y="1661.7157287525383" as="sourcePoint" />
            <mxPoint x="510.0000000000082" y="1460" as="targetPoint" />
            <Array as="points">
              <mxPoint x="1138" y="1652" />
              <mxPoint x="1110" y="1652" />
              <mxPoint x="1110" y="1460" />
            </Array>
          </mxGeometry>
        </mxCell>
        <mxCell id="Wg9T3s5gL22rxu_gKdYz-104" value="&lt;div style=&quot;line-height: 19px&quot;&gt;&lt;font face=&quot;consolas, courier new, monospace&quot;&gt;&lt;span style=&quot;font-size: 28px&quot;&gt;CHANNEL_CALLSTATE（HANGUP）&lt;/span&gt;&lt;/font&gt;&lt;br&gt;&lt;/div&gt;&lt;div style=&quot;font-family: &amp;#34;consolas&amp;#34; , &amp;#34;courier new&amp;#34; , monospace ; line-height: 19px ; font-size: 28px&quot;&gt;&lt;span&gt;&lt;br&gt;&lt;/span&gt;&lt;/div&gt;&lt;div style=&quot;font-family: &amp;#34;consolas&amp;#34; , &amp;#34;courier new&amp;#34; , monospace ; line-height: 19px ; font-size: 28px&quot;&gt;&lt;span style=&quot;color: rgb(255 , 128 , 0)&quot;&gt;OnHangup&lt;/span&gt;&lt;span&gt;&lt;br&gt;&lt;/span&gt;&lt;/div&gt;&lt;div style=&quot;font-family: &amp;#34;consolas&amp;#34; , &amp;#34;courier new&amp;#34; , monospace ; line-height: 19px ; font-size: 28px&quot;&gt;&lt;span&gt;&lt;br&gt;&lt;/span&gt;&lt;/div&gt;&lt;div style=&quot;font-family: &amp;#34;consolas&amp;#34; , &amp;#34;courier new&amp;#34; , monospace ; line-height: 19px ; font-size: 28px&quot;&gt;&lt;div style=&quot;font-family: &amp;#34;consolas&amp;#34; , &amp;#34;courier new&amp;#34; , monospace ; line-height: 19px&quot;&gt;&lt;br&gt;&lt;/div&gt;&lt;/div&gt;" style="edgeLabel;html=1;align=center;verticalAlign=middle;resizable=0;points=[];fontSize=15;fontColor=#000099;labelBackgroundColor=default;fontStyle=1;" vertex="1" connectable="0" parent="1">
          <mxGeometry x="1040" y="1169.0015384615385" as="geometry">
            <mxPoint x="204" y="153" as="offset" />
          </mxGeometry>
        </mxCell>
        <mxCell id="Wg9T3s5gL22rxu_gKdYz-92" value="&lt;div style=&quot;line-height: 19px&quot;&gt;&lt;font face=&quot;consolas, courier new, monospace&quot;&gt;&lt;span style=&quot;font-size: 28px&quot;&gt;CHANNEL_CALLSTATE（ACTIVE）&lt;/span&gt;&lt;/font&gt;&lt;br&gt;&lt;/div&gt;&lt;div style=&quot;font-family: &amp;quot;consolas&amp;quot; , &amp;quot;courier new&amp;quot; , monospace ; line-height: 19px ; font-size: 28px&quot;&gt;&lt;span&gt;&lt;br&gt;&lt;/span&gt;&lt;/div&gt;&lt;div style=&quot;font-family: &amp;quot;consolas&amp;quot; , &amp;quot;courier new&amp;quot; , monospace ; line-height: 19px ; font-size: 28px&quot;&gt;&lt;span style=&quot;color: rgb(255 , 128 , 0)&quot;&gt;OnTalking&lt;/span&gt;&lt;span&gt;&lt;br&gt;&lt;/span&gt;&lt;/div&gt;&lt;div style=&quot;font-family: &amp;quot;consolas&amp;quot; , &amp;quot;courier new&amp;quot; , monospace ; line-height: 19px ; font-size: 28px&quot;&gt;&lt;span&gt;&lt;br&gt;&lt;/span&gt;&lt;/div&gt;&lt;div style=&quot;font-family: &amp;quot;consolas&amp;quot; , &amp;quot;courier new&amp;quot; , monospace ; line-height: 19px ; font-size: 28px&quot;&gt;&lt;div style=&quot;font-family: &amp;quot;consolas&amp;quot; , &amp;quot;courier new&amp;quot; , monospace ; line-height: 19px&quot;&gt;&lt;br&gt;&lt;/div&gt;&lt;/div&gt;" style="edgeLabel;html=1;align=center;verticalAlign=middle;resizable=0;points=[];fontSize=15;fontColor=#000099;labelBackgroundColor=default;fontStyle=1;" vertex="1" connectable="0" parent="1">
          <mxGeometry x="880" y="1520.0015384615385" as="geometry">
            <mxPoint x="8" y="-33" as="offset" />
          </mxGeometry>
        </mxCell>
      </root>
    </mxGraphModel>
  </diagram>
</mxfile>
